<svg xmlns="http://www.w3.org/2000/svg" width="57" height="57" viewBox="0 0 57 57">
  <g id="Grupo_973" data-name="Grupo 973" transform="translate(-44 -1066)">
    <path id="Unión_9" data-name="Unión 9" d="M0,28.5c0-.345.006-.687.018-1.029Q0,27.238,0,27V6A6,6,0,0,1,6,0H30a6.025,6.025,0,0,1,1.254.131A28.5,28.5,0,1,1,0,28.5Z" transform="translate(44 1066)" fill="rgba(255,255,255,0.79)"/>
    <g id="Grupo_831" data-name="Grupo 831" transform="translate(870.32 -1327)">
      <path id="Trazado_1961" data-name="Trazado 1961" d="M1.91,23.027l5-2.89v2.548l-3.9,2.249Zm5,8.666v-7.8L3.535,25.841ZM10.149,17.06,23.077,9.6v0l-.709-1.228a1.313,1.313,0,0,0-1.786-.479L1.155,19.106a1.312,1.312,0,0,0-.479,1.786l.709,1.228L6.97,18.9a2.368,2.368,0,0,1,2.3-1.832h.883Zm17.24,0-2.164-3.747L18.739,17.06Zm-10.738,0L24.7,12.414,23.6,10.5,12.241,17.06ZM7.962,24.088H33.011v-2.2H7.962ZM31.7,18.111H9.269a1.31,1.31,0,0,0-1.307,1.307v1.419H33.011V19.418A1.31,1.31,0,0,0,31.7,18.111ZM7.962,25.135H33.011v9.04A1.31,1.31,0,0,1,31.7,35.482H9.269a1.31,1.31,0,0,1-1.307-1.307v-9.04Zm17.22,6.617a1.267,1.267,0,0,0,1.264,1.264H29.28a1.267,1.267,0,0,0,1.264-1.264V28.921a1.267,1.267,0,0,0-1.264-1.264H26.447a1.267,1.267,0,0,0-1.264,1.264Zm-13.9-3.573a.521.521,0,0,0,.522.522h8.351a.522.522,0,1,0,0-1.044H11.8A.519.519,0,0,0,11.279,28.179Zm0,2.157a.521.521,0,0,0,.522.522h5.845a.524.524,0,0,0,0-1.048H11.8A.524.524,0,0,0,11.279,30.337Zm0,2.157a.524.524,0,0,0,.522.525h8.351a.524.524,0,0,0,0-1.048H11.8A.517.517,0,0,0,11.279,32.494Zm15.168-.525H29.28a.225.225,0,0,0,.22-.217V28.921a.221.221,0,0,0-.066-.154.216.216,0,0,0-.154-.066H26.447a.221.221,0,0,0-.154.066.219.219,0,0,0-.062.154v2.834a.205.205,0,0,0,.062.151A.24.24,0,0,0,26.447,31.969Z" transform="translate(-815 2399.288)" fill="#f8bd01"/>
    </g>
  </g>
</svg>
