<svg xmlns="http://www.w3.org/2000/svg" width="57" height="57" viewBox="0 0 57 57">
  <g id="Grupo_972" data-name="Grupo 972" transform="translate(-44 -606)">
    <path id="Unión_3" data-name="Unión 3" d="M0,28.5c0-.345.006-.687.018-1.029Q0,27.238,0,27V6A6,6,0,0,1,6,0H30a6.025,6.025,0,0,1,1.254.131A28.5,28.5,0,1,1,0,28.5Z" transform="translate(44 606)" fill="rgba(255,255,255,0.79)"/>
    <g id="Grupo_828" data-name="Grupo 828" transform="translate(1349.377 -2132.555)">
      <g id="Grupo_828-2" data-name="Grupo 828" transform="translate(-1287.17 2754)">
        <path id="Trazado_1956" data-name="Trazado 1956" d="M21.758,9.965V6.975a.456.456,0,0,1,.456-.456H24.4a1.735,1.735,0,0,1,3.443,0H30.03a.456.456,0,0,1,.456.456v2.99a.456.456,0,0,1-.456.456H22.214a.456.456,0,0,1-.456-.456ZM15.83,31.507V8.313a.6.6,0,0,1,.6-.6h4.121V9.965a1.663,1.663,0,0,0,1.661,1.661H30.03a1.663,1.663,0,0,0,1.661-1.661V7.711h4.121a.6.6,0,0,1,.6.6V31.507a.6.6,0,0,1-.6.6H16.432a.6.6,0,0,1-.6-.6Zm10-14.8a.167.167,0,0,0,.167.167h7.433A.167.167,0,0,0,33.6,16.7v-.87a.167.167,0,0,0-.167-.167H26a.167.167,0,0,0-.167.167Zm0,5.936a.167.167,0,0,0,.167.167h7.433a.167.167,0,0,0,.167-.167v-.87a.167.167,0,0,0-.167-.167H26a.167.167,0,0,0-.167.167Zm0,5.936a.167.167,0,0,0,.167.167h7.433a.167.167,0,0,0,.167-.167v-.87a.167.167,0,0,0-.167-.167H26a.167.167,0,0,0-.167.167ZM18.694,15.6l2.067,2.067a.167.167,0,0,0,.237,0l3.829-3.83a.167.167,0,0,0,0-.237l-.615-.615a.167.167,0,0,0-.237,0l-3.1,3.1-1.333-1.333a.167.167,0,0,0-.237,0l-.615.615A.167.167,0,0,0,18.694,15.6Zm0,5.936,2.067,2.067a.167.167,0,0,0,.237,0l3.829-3.83a.167.167,0,0,0,0-.237l-.615-.615a.167.167,0,0,0-.237,0l-3.1,3.1-1.333-1.333a.167.167,0,0,0-.237,0l-.615.615A.167.167,0,0,0,18.694,21.539Zm0,5.936,2.067,2.067a.167.167,0,0,0,.237,0l3.829-3.83a.167.167,0,0,0,0-.237l-.615-.615a.167.167,0,0,0-.237,0l-3.1,3.1-1.333-1.333a.167.167,0,0,0-.237,0l-.615.615a.167.167,0,0,0,0,.237Z" transform="translate(-15.83 -5)" fill="#f8bd01"/>
      </g>
    </g>
  </g>
</svg>
