<svg xmlns="http://www.w3.org/2000/svg" width="29.179" height="29.208" viewBox="0 0 29.179 29.208">
  <g id="settings-solid" transform="translate(-3.96 -4)">
    <path id="Trazado_1936" data-name="Trazado 1936" d="M32.779,16.384l-3.262-.974a11.343,11.343,0,0,0-.925-2.268l1.6-2.989a.594.594,0,0,0-.107-.7L27.755,7.115a.594.594,0,0,0-.7-.107L24.084,8.6a11.313,11.313,0,0,0-2.3-.974L20.813,4.4a.594.594,0,0,0-.574-.4H16.948a.594.594,0,0,0-.565.419L15.41,7.631a11.323,11.323,0,0,0-2.317.974L10.172,7.028a.594.594,0,0,0-.7.107L7.1,9.442a.594.594,0,0,0-.107.7l1.577,2.921A11.323,11.323,0,0,0,7.6,15.372l-3.223.974a.594.594,0,0,0-.419.565V20.2a.594.594,0,0,0,.419.565l3.242.974a11.313,11.313,0,0,0,.974,2.268L7,27.065a.594.594,0,0,0,.107.7l2.327,2.327a.594.594,0,0,0,.7.107l3.008-1.606a11.343,11.343,0,0,0,2.239.915l.974,3.281a.594.594,0,0,0,.565.419h3.291a.594.594,0,0,0,.565-.419l.974-3.291a11.323,11.323,0,0,0,2.22-.915L27,30.2a.594.594,0,0,0,.7-.107l2.327-2.327a.594.594,0,0,0,.107-.7l-1.616-3.018a11.323,11.323,0,0,0,.925-2.23l3.281-.974a.594.594,0,0,0,.419-.565v-3.32a.594.594,0,0,0-.36-.574ZM18.593,23.959A5.355,5.355,0,1,1,23.948,18.6a5.355,5.355,0,0,1-5.355,5.355Z" transform="translate(0 0)" fill="#004777"/>
  </g>
</svg>
