<svg xmlns="http://www.w3.org/2000/svg" width="57" height="57" viewBox="0 0 57 57">
  <g id="Grupo_967" data-name="Grupo 967" transform="translate(-87 -457)">
    <path id="Unión_1" data-name="Unión 1" d="M0,28.5c0-.345.006-.687.018-1.029Q0,27.238,0,27V6A6,6,0,0,1,6,0H30a6.025,6.025,0,0,1,1.254.131A28.5,28.5,0,1,1,0,28.5Z" transform="translate(87 457)" fill="rgba(255,255,255,0.79)"/>
    <path id="Trazado_1940" data-name="Trazado 1940" d="M23.445,38.89A15.445,15.445,0,1,1,38.89,23.445,15.445,15.445,0,0,1,23.445,38.89ZM35.8,23.445A12.356,12.356,0,1,0,23.445,35.8,12.356,12.356,0,0,0,35.8,23.445ZM29.623,21.9a1.544,1.544,0,1,1,0,3.089H24.989A3.1,3.1,0,0,1,21.9,21.9V15.722a1.544,1.544,0,0,1,3.089,0V21.9Z" transform="translate(92.055 463.493)" fill="#f8bd01" fill-rule="evenodd"/>
  </g>
</svg>
