<svg xmlns="http://www.w3.org/2000/svg" width="24.935" height="18.404" viewBox="0 0 24.935 18.404">
  <g id="Grupo_967" data-name="Grupo 967" transform="translate(-331.986 -493.245)">
    <g id="eye" transform="translate(333.032 486.792)">
      <g id="Grupo_798" data-name="Grupo 798" transform="translate(0 7.5)">
        <path id="Trazado_1927" data-name="Trazado 1927" d="M23.3,15.51S18.932,7.5,11.651,7.5,0,15.51,0,15.51s4.369,8.01,11.651,8.01S23.3,15.51,23.3,15.51Zm-21.593,0a19.126,19.126,0,0,1,2.418-2.975,10.851,10.851,0,0,1,7.525-3.578,10.86,10.86,0,0,1,7.526,3.578,19.126,19.126,0,0,1,2.418,2.975c-.084.127-.178.267-.284.419a19.2,19.2,0,0,1-2.134,2.556,10.863,10.863,0,0,1-7.526,3.578,10.86,10.86,0,0,1-7.526-3.578A19.128,19.128,0,0,1,1.707,15.51Z" transform="translate(0 -7.5)" fill="#fff"/>
        <path id="Trazado_1928" data-name="Trazado 1928" d="M18.6,14.956A3.641,3.641,0,1,0,22.238,18.6,3.641,3.641,0,0,0,18.6,14.956ZM13.5,18.6a5.1,5.1,0,1,1,5.1,5.1A5.1,5.1,0,0,1,13.5,18.6Z" transform="translate(-6.946 -10.587)" fill="#fff"/>
      </g>
    </g>
    <path id="Trazado_1937" data-name="Trazado 1937" d="M-1870.968,1645.311l22.843-16.311" transform="translate(2204 -1134.708)" fill="none" stroke="#fff" stroke-linecap="round" stroke-width="1.5"/>
  </g>
</svg>
