<svg xmlns="http://www.w3.org/2000/svg" width="57" height="57" viewBox="0 0 57 57">
  <g id="Grupo_978" data-name="Grupo 978" transform="translate(-37 -981)">
    <path id="Unión_8" data-name="Unión 8" d="M0,28.5c0-.345.006-.687.018-1.029Q0,27.238,0,27V6A6,6,0,0,1,6,0H30a6.025,6.025,0,0,1,1.254.131A28.5,28.5,0,1,1,0,28.5Z" transform="translate(37 981)" fill="rgba(255,255,255,0.79)"/>
    <g id="newspaper" transform="translate(53.083 993.373)">
      <g id="Grupo_809" data-name="Grupo 809" transform="translate(0 3)">
        <path id="Trazado_1941" data-name="Trazado 1941" d="M0,5.706A2.706,2.706,0,0,1,2.706,3H22.549a2.706,2.706,0,0,1,2.706,2.706V24.7a3.43,3.43,0,0,1-.429,1.753h1.331a.9.9,0,0,0,.9-.9V9.314a.9.9,0,0,1,1.8,0V25.549a2.706,2.706,0,0,1-2.706,2.706H2.7A2.7,2.7,0,0,1,0,25.549ZM21.647,26.451a2.054,2.054,0,0,0,1.539-.8,1.44,1.44,0,0,0,.265-.958V5.706a.9.9,0,0,0-.9-.9H2.706a.9.9,0,0,0-.9.9V25.549a.9.9,0,0,0,.9.9Z" transform="translate(0 -3)" fill="#f8bd01"/>
        <path id="Trazado_1942" data-name="Trazado 1942" d="M6,9H24.039v3.608H6Zm0,5.412h7.216v5.412H6Zm0,7.216h7.216v1.8H6Zm0,3.608h7.216v1.8H6Zm9.019-10.823h3.608v1.8H15.019Zm5.412,0h3.608v1.8H20.431Zm-5.412,3.608h3.608v1.8H15.019Zm5.412,0h3.608v1.8H20.431Zm-5.412,3.608h3.608v1.8H15.019Zm5.412,0h3.608v1.8H20.431Zm-5.412,3.608h3.608v1.8H15.019Zm5.412,0h3.608v1.8H20.431Z" transform="translate(-2.392 -5.392)" fill="#f8bd01"/>
      </g>
    </g>
  </g>
</svg>
