<svg xmlns="http://www.w3.org/2000/svg" width="17.4" height="17.4" viewBox="0 0 17.4 17.4">
  <path id="Trazado_1955" data-name="Trazado 1955" d="M12.046,7.362a4.512,4.512,0,0,0-1.375-3.31,4.512,4.512,0,0,0-3.31-1.375,4.512,4.512,0,0,0-3.31,1.375,4.512,4.512,0,0,0-1.375,3.31,4.512,4.512,0,0,0,1.375,3.31,4.512,4.512,0,0,0,3.31,1.375,4.512,4.512,0,0,0,3.31-1.375A4.512,4.512,0,0,0,12.046,7.362Zm5.354,8.7A1.357,1.357,0,0,1,16.062,17.4a1.243,1.243,0,0,1-.941-.4l-3.587-3.576a7.161,7.161,0,0,1-4.172,1.3,7.234,7.234,0,0,1-2.86-.58A7.209,7.209,0,0,1,.58,10.221a7.337,7.337,0,0,1,0-5.72A7.209,7.209,0,0,1,4.5.58a7.337,7.337,0,0,1,5.72,0A7.209,7.209,0,0,1,14.143,4.5a7.234,7.234,0,0,1,.58,2.86,7.161,7.161,0,0,1-1.3,4.172l3.587,3.587A1.281,1.281,0,0,1,17.4,16.062Z" fill="#f8bd01"/>
</svg>
