<svg xmlns="http://www.w3.org/2000/svg" width="57" height="57" viewBox="0 0 57 57">
  <g id="Grupo_974" data-name="Grupo 974" transform="translate(-37 -829)">
    <path id="Unión_6" data-name="Unión 6" d="M0,28.5c0-.345.006-.687.018-1.029Q0,27.238,0,27V6A6,6,0,0,1,6,0H30a6.025,6.025,0,0,1,1.254.131A28.5,28.5,0,1,1,0,28.5Z" transform="translate(37 829)" fill="rgba(255,255,255,0.79)"/>
    <g id="Grupo_815" data-name="Grupo 815" transform="translate(1091.696 -746.382)">
      <path id="Trazado_1943" data-name="Trazado 1943" d="M39.77,31.235a6.689,6.689,0,1,0,6.685,6.689A6.694,6.694,0,0,0,39.77,31.235Z" transform="translate(-1065.986 1566.909)" fill="#f8bd01"/>
      <path id="Trazado_1944" data-name="Trazado 1944" d="M32.029,18.643A11.547,11.547,0,1,0,43.576,30.19,11.547,11.547,0,0,0,32.029,18.643Zm0,19.451a7.9,7.9,0,1,1,7.9-7.9A7.911,7.911,0,0,1,32.029,38.094Z" transform="translate(-1058.245 1574.643)" fill="#f8bd01"/>
      <path id="Trazado_1945" data-name="Trazado 1945" d="M88.816,32.135c-.141-1.641.279-8.091.279-9.394s.017-4.837-.76-4.837c-.839,0-3.02,4.63-1.671,9.166.785,2.641,1.362,3.346,1.215,5.064s-.746,8.713-.8,9.318a1.267,1.267,0,0,0,2.532,0C89.561,40.847,88.962,33.853,88.816,32.135Z" transform="translate(-1100.367 1575.097)" fill="#f8bd01"/>
      <path id="Trazado_1946" data-name="Trazado 1946" d="M8.267,17.9H8.2a.1.1,0,0,0-.1.1l.059,4.241a.2.2,0,0,1-.2.2H7.883a.213.213,0,0,1-.211-.2L7.5,18a.106.106,0,0,0-.105-.1H7.3a.1.1,0,0,0-.1.1l-.071,4.242a.207.207,0,0,1-.206.2H6.872a.207.207,0,0,1-.206-.2L6.6,18a.1.1,0,0,0-.1-.1H6.4A.107.107,0,0,0,6.3,18l-.177,4.242a.213.213,0,0,1-.211.2H5.834a.2.2,0,0,1-.2-.2L5.693,18a.1.1,0,0,0-.1-.1H5.527a.109.109,0,0,0-.108.1L5.005,24.44A1.686,1.686,0,0,0,5.4,25.706l.39.454a1.925,1.925,0,0,1,.587,1.394c-.046.67-.691,13.293-.743,13.9A1.313,1.313,0,0,0,6.9,42.667a1.313,1.313,0,0,0,1.266-1.215c-.052-.605-.7-13.228-.743-13.9a1.926,1.926,0,0,1,.587-1.394l.39-.454a1.685,1.685,0,0,0,.391-1.267L8.374,18A.109.109,0,0,0,8.267,17.9Z" transform="translate(-1047 1575.098)" fill="#f8bd01"/>
    </g>
  </g>
</svg>
