<svg xmlns="http://www.w3.org/2000/svg" width="57" height="57" viewBox="0 0 57 57">
  <g id="Grupo_971" data-name="Grupo 971" transform="translate(-37 -753)">
    <path id="Unión_5" data-name="Unión 5" d="M0,28.5c0-.345.006-.687.018-1.029Q0,27.238,0,27V6A6,6,0,0,1,6,0H30a6.025,6.025,0,0,1,1.254.131A28.5,28.5,0,1,1,0,28.5Z" transform="translate(37 753)" fill="rgba(255,255,255,0.79)"/>
    <path id="Trazado_1949" data-name="Trazado 1949" d="M11.061.81h8.3a.471.471,0,0,1,.47.47V7.129a.471.471,0,0,1-.47.47h-3.68v2.5h7.875a.471.471,0,0,1,.47.47v2.973h2.129a.471.471,0,0,1,.47.47V17.46a.471.471,0,0,1-.47.47H21.061a.471.471,0,0,1-.47-.47V14.016a.471.471,0,0,1,.47-.47h2.028v-2.5H7.336v2.5H9.364a.471.471,0,0,1,.47.47V17.46a.471.471,0,0,1-.47.47H4.27a.471.471,0,0,1-.47-.47V14.016a.471.471,0,0,1,.47-.47H6.4V10.573a.469.469,0,0,1,.469-.469h7.874V7.6h-3.68a.471.471,0,0,1-.47-.47V1.281a.471.471,0,0,1,.47-.47ZM24.853,22.065h1.874V19.839H20.39v2.226h1.872a.471.471,0,0,1,.47.47V25.7a.471.471,0,0,1-.47.47H17.577a.471.471,0,0,1-.47-.47V22.535a.471.471,0,0,1,.47-.47h1.872v-2.7a.471.471,0,0,1,.47-.47H27.2a.471.471,0,0,1,.47.47v2.7h1.873a.471.471,0,0,1,.47.47V25.7a.471.471,0,0,1-.47.47H24.853a.471.471,0,0,1-.47-.47V22.535a.471.471,0,0,1,.47-.47Zm-16.9,0H9.83V19.839H3.5v2.226H5.367a.471.471,0,0,1,.47.47V25.7a.471.471,0,0,1-.47.47H.682a.471.471,0,0,1-.47-.47V22.535a.471.471,0,0,1,.47-.47H2.554v-2.7a.471.471,0,0,1,.47-.47H10.3a.471.471,0,0,1,.47.47v2.7h1.872a.471.471,0,0,1,.47.47V25.7a.471.471,0,0,1-.47.47H7.958a.471.471,0,0,1-.47-.47V22.535A.471.471,0,0,1,7.958,22.065Z" transform="translate(48.979 770.509)" fill="#f8bd01"/>
  </g>
</svg>
