<svg xmlns="http://www.w3.org/2000/svg" width="29.475" height="32.75" viewBox="0 0 29.475 32.75">
  <path id="Trazado_1932" data-name="Trazado 1932" d="M14.188,7.275h13.1V4h3.275V7.275H32.2a3.275,3.275,0,0,1,3.275,3.275V33.475A3.275,3.275,0,0,1,32.2,36.75H9.275A3.275,3.275,0,0,1,6,33.475V10.55A3.275,3.275,0,0,1,9.275,7.275h1.637V4h3.275Zm-4.913,6.55v19.65H32.2V13.825Zm3.275,4.913h3.275v3.275H12.55Zm6.55,0h3.275v3.275H19.1Zm6.55,0h3.275v3.275H25.65Zm0,6.55h3.275v3.275H25.65Zm-6.55,0h3.275v3.275H19.1Zm-6.55,0h3.275v3.275H12.55Z" transform="translate(-6 -4)" fill="#f8bd01" fill-rule="evenodd"/>
</svg>
