<svg xmlns="http://www.w3.org/2000/svg" width="19" height="19" viewBox="0 0 19 19">
  <g id="Grupo_971" data-name="Grupo 971" transform="translate(-56 -566)">
    <circle id="Oval" cx="9.5" cy="9.5" r="9.5" transform="translate(56 566)" fill="#2aaeff"/>
    <g id="Grupo_894" data-name="Grupo 894" transform="translate(61 570.869)">
      <g id="arrow-ios-downward-fill" transform="translate(0 4.404)">
        <path id="Trazado_2008" data-name="Trazado 2008" d="M14.741,18a.678.678,0,0,0-.434.156l-4.066,3.388a.678.678,0,1,0,.867,1.043l3.632-3.036,3.632,2.927a.695.695,0,1,0,.861-1.091l-4.066-3.273A.678.678,0,0,0,14.741,18Z" transform="translate(-9.997 -17.997)" fill="#fff"/>
      </g>
      <g id="arrow-ios-downward-fill-2" data-name="arrow-ios-downward-fill">
        <path id="Trazado_2008-2" data-name="Trazado 2008" d="M14.741,18a.678.678,0,0,0-.434.156l-4.066,3.388a.678.678,0,1,0,.867,1.043l3.632-3.036,3.632,2.927a.695.695,0,1,0,.861-1.091l-4.066-3.273A.678.678,0,0,0,14.741,18Z" transform="translate(-9.997 -17.997)" fill="#fff"/>
      </g>
    </g>
  </g>
</svg>
