<svg xmlns="http://www.w3.org/2000/svg" width="57" height="57" viewBox="0 0 57 57">
  <g id="Grupo_977" data-name="Grupo 977" transform="translate(-37 -905)">
    <path id="Unión_7" data-name="Unión 7" d="M0,28.5c0-.345.006-.687.018-1.029Q0,27.238,0,27V6A6,6,0,0,1,6,0H30a6.025,6.025,0,0,1,1.254.131A28.5,28.5,0,1,1,0,28.5Z" transform="translate(37 905)" fill="rgba(255,255,255,0.79)"/>
    <g id="Grupo_830" data-name="Grupo 830" transform="translate(1119.32 -1274)">
      <path id="Trazado_1959" data-name="Trazado 1959" d="M31.875,50.371l-.334-.167-8.741-5v6.105a17.35,17.35,0,0,0,18.116,0V45.2l-8.708,5Z" transform="translate(-1086.861 2162.212)" fill="#f8bd01"/>
      <path id="Trazado_1960" data-name="Trazado 1960" d="M33.459,28.755a1.318,1.318,0,0,0-.8-1.2V14.976l2.4-1.368L20.013,5,5,13.608l15.013,8.608,11.61-6.639V27.587a1.318,1.318,0,0,0-.8,1.2,1.3,1.3,0,0,0,.734,1.168l-.867,4.771h2.869l-.867-4.8A1.276,1.276,0,0,0,33.459,28.755Z" transform="translate(-1075 2189)" fill="#f8bd01"/>
    </g>
  </g>
</svg>
