<svg xmlns="http://www.w3.org/2000/svg" width="57" height="57" viewBox="0 0 57 57">
  <g id="Grupo_971" data-name="Grupo 971" transform="translate(-41 -682)">
    <path id="Uni贸n_4" data-name="Uni贸n 4" d="M0,28.5c0-.345.006-.687.018-1.029Q0,27.238,0,27V6A6,6,0,0,1,6,0H30a6.025,6.025,0,0,1,1.254.131A28.5,28.5,0,1,1,0,28.5Z" transform="translate(41 682)" fill="rgba(255,255,255,0.79)"/>
    <path id="Sustracci贸n_2" data-name="Sustracci贸n 2" d="M17.531,24.844H2.5A2.5,2.5,0,0,1,0,22.36V7.305a8.8,8.8,0,0,0,2.5.454v14.6H17.531V6.211H13.775V2.484H10.881A8.584,8.584,0,0,0,11.534,0h3.493l5.009,4.969V22.36A2.5,2.5,0,0,1,17.531,24.844Zm-2.5-6.211H5.009V16.149H15.027v2.484Zm0-4.969H5.009V11.18H15.027v2.484Z" transform="translate(59.633 702.337)" fill="#f8bd01"/>
    <path id="Trazado_1940" data-name="Trazado 1940" d="M15.568,23.135a7.568,7.568,0,1,1,7.568-7.568A7.567,7.567,0,0,1,15.568,23.135Zm6.054-7.568a6.054,6.054,0,1,0-6.054,6.054A6.054,6.054,0,0,0,21.622,15.568Zm-3.027-.757a.757.757,0,1,1,0,1.514h-2.27a1.518,1.518,0,0,1-1.514-1.514V11.784a.757.757,0,0,1,1.514,0v3.027Z" transform="translate(47.331 685.818)" fill="#f8bd01" fill-rule="evenodd"/>
  </g>
</svg>
