<svg xmlns="http://www.w3.org/2000/svg" width="57" height="57" viewBox="0 0 57 57">
  <g id="Grupo_967" data-name="Grupo 967" transform="translate(2762 -1685)">
    <path id="Trazado_2127" data-name="Trazado 2127" d="M0,28.5c0-.345.006-.687.018-1.029Q0,27.238,0,27V6A6,6,0,0,1,6,0H30a6.025,6.025,0,0,1,1.254.131A28.5,28.5,0,1,1,0,28.5Z" transform="translate(-2762 1685)" fill="rgba(255,255,255,0.79)"/>
    <path id="Trazado_2126" data-name="Trazado 2126" d="M.006,17.473A13.069,13.069,0,0,1,12.27,4.028V1.6H10.936V0H15.2V1.6H13.87V4.028A13.069,13.069,0,1,1,.006,17.473ZM4.8,17.1a8.268,8.268,0,0,0,8.268,8.268v-.026A8.255,8.255,0,1,0,4.8,17.1Zm1.6-.026a6.668,6.668,0,1,1,6.668,6.668A6.668,6.668,0,0,1,6.4,17.07Zm1.766.314,3.152,3.153,6.663-5.819-1.066-1.206L11.389,18.35,9.3,16.254Z" transform="translate(-2746.57 1701.413)" fill="#f8bd01"/>
  </g>
</svg>
