<svg xmlns="http://www.w3.org/2000/svg" xmlns:xlink="http://www.w3.org/1999/xlink" width="105.558" height="45.5" viewBox="0 0 105.558 45.5">
  <defs>
    <clipPath id="clip-path">
      <rect id="Rectángulo_666" data-name="Rectángulo 666" width="105.558" height="45.5" fill="none"/>
    </clipPath>
  </defs>
  <g id="Grupo_820" data-name="Grupo 820" transform="translate(0 0)">
    <rect id="Rectángulo_654" data-name="Rectángulo 654" width="4.702" height="20.109" transform="translate(29.807 0)" fill="#f8bd01"/>
    <rect id="Rectángulo_655" data-name="Rectángulo 655" width="16.064" height="4.732" transform="translate(23.9 20.11)" fill="#004777"/>
    <rect id="Rectángulo_656" data-name="Rectángulo 656" width="20.041" height="4.732" transform="translate(0 20.11)" fill="#004777"/>
    <g id="Grupo_784" data-name="Grupo 784" transform="translate(0 0)">
      <g id="Grupo_783" data-name="Grupo 783" clip-path="url(#clip-path)">
        <path id="Trazado_1746" data-name="Trazado 1746" d="M51.514,54.017V52.4H31.14v4.732H48.4a3.128,3.128,0,0,0,3.118-3.118" transform="translate(-7.24 -12.185)" fill="#004777"/>
        <path id="Trazado_1747" data-name="Trazado 1747" d="M20.16,57.135V52.4H.511v1.813A2.919,2.919,0,0,0,3.43,57.135Z" transform="translate(-0.119 -12.184)" fill="#004777"/>
        <rect id="Rectángulo_657" data-name="Rectángulo 657" width="44.273" height="4.732" transform="translate(0.001 30.361)" fill="#004777"/>
        <rect id="Rectángulo_658" data-name="Rectángulo 658" width="4.702" height="15.377" transform="translate(29.807 24.841)" fill="#f8bd01"/>
        <path id="Trazado_1748" data-name="Trazado 1748" d="M51.56,45.725v9.858h1.583a3.127,3.127,0,0,0,3.118-3.118V45.725Z" transform="translate(-11.988 -10.632)" fill="#f8bd01"/>
        <rect id="Rectángulo_659" data-name="Rectángulo 659" width="4.702" height="30.361" transform="translate(39.572)" fill="#f8bd01"/>
        <rect id="Rectángulo_660" data-name="Rectángulo 660" width="4.702" height="30.361" transform="translate(20.041)" fill="#f8bd01"/>
        <rect id="Rectángulo_661" data-name="Rectángulo 661" width="4.702" height="9.858" transform="translate(20.041 35.093)" fill="#f8bd01"/>
        <rect id="Rectángulo_662" data-name="Rectángulo 662" width="0.784" height="16.166" transform="translate(8.62 1.183)" fill="#004777"/>
        <rect id="Rectángulo_663" data-name="Rectángulo 663" width="16.166" height="0.784" transform="translate(0.929 8.874)" fill="#004777"/>
        <rect id="Rectángulo_664" data-name="Rectángulo 664" width="0.784" height="16.166" transform="translate(3.019 3.828) rotate(-45)" fill="#004777"/>
        <rect id="Rectángulo_665" data-name="Rectángulo 665" width="16.166" height="0.784" transform="translate(3.019 14.705) rotate(-45)" fill="#004777"/>
        <path id="Trazado_1749" data-name="Trazado 1749" d="M71.346,42.031a7,7,0,0,1-1.639-.2,9.46,9.46,0,0,1-1.734-.619l-.351-.16a.2.2,0,0,1-.115-.178V39.412a.2.2,0,0,1,.28-.177l.609.29a12.6,12.6,0,0,0,1.634.655,4.213,4.213,0,0,0,1.21.211.889.889,0,0,0,.54-.148.473.473,0,0,0,.2-.4.375.375,0,0,0-.17-.328,1.9,1.9,0,0,0-.635-.212l-1.417-.3a3.228,3.228,0,0,1-1.639-.734,1.922,1.922,0,0,1-.487-1.412,2.272,2.272,0,0,1,.328-1.232,2.207,2.207,0,0,1,.92-.814,3.113,3.113,0,0,1,1.385-.291,6.11,6.11,0,0,1,1.322.148,13.825,13.825,0,0,1,1.565.466l.31.109a.39.39,0,0,1,.261.368v1.259a.2.2,0,0,1-.265.183l-.655-.248q-.655-.254-1.094-.391a6.812,6.812,0,0,0-.745-.2,3.218,3.218,0,0,0-.592-.058.89.89,0,0,0-.529.137.443.443,0,0,0-.19.381.436.436,0,0,0,.147.349,1.121,1.121,0,0,0,.477.2l1.49.306a4.842,4.842,0,0,1,1.312.434,1.647,1.647,0,0,1,.7.682A2.276,2.276,0,0,1,74,39.705a2.161,2.161,0,0,1-.7,1.713,2.865,2.865,0,0,1-1.956.613" transform="translate(-15.696 -8.027)" fill="#004777"/>
        <path id="Trazado_1750" data-name="Trazado 1750" d="M77.1,35.3V33.962a.2.2,0,0,1,.2-.2h1.692a.2.2,0,0,1,.195.2V35.3a.2.2,0,0,1-.195.2H77.293a.2.2,0,0,1-.2-.2m.1,6.2V36.341a.2.2,0,0,1,.2-.2h1.5a.2.2,0,0,1,.2.2V41.5a.2.2,0,0,1-.2.2h-1.5a.2.2,0,0,1-.2-.2" transform="translate(-17.926 -7.851)" fill="#004777"/>
        <path id="Trazado_1751" data-name="Trazado 1751" d="M82.623,41.835a1.342,1.342,0,0,1-1.063-.391,1.829,1.829,0,0,1-.344-1.226V34.1a.2.2,0,0,1,.2-.2h1.5a.2.2,0,0,1,.2.2v5.663c0,.211.078.314.233.317a1.163,1.163,0,0,0,.452-.136.2.2,0,0,1,.277.178v1.184a.2.2,0,0,1-.116.179c-.162.071-.448.195-.557.229a2.65,2.65,0,0,1-.775.121" transform="translate(-18.884 -7.883)" fill="#004777"/>
        <path id="Trazado_1752" data-name="Trazado 1752" d="M86.976,42.3l-2.133-5.161a.2.2,0,0,1,.18-.27h1.612a.2.2,0,0,1,.183.128l1.17,3.2,1.159-3.2a.2.2,0,0,1,.184-.129h1.527a.2.2,0,0,1,.18.27L88.906,42.3a.2.2,0,0,1-.181.121H87.157a.2.2,0,0,1-.181-.121" transform="translate(-19.724 -8.572)" fill="#004777"/>
        <path id="Trazado_1753" data-name="Trazado 1753" d="M94.908,42.491a1.92,1.92,0,0,1-1.317-.418,1.483,1.483,0,0,1-.47-1.169,1.441,1.441,0,0,1,.534-1.221,3.787,3.787,0,0,1,1.8-.555l1.385-.159a.653.653,0,0,0-.17-.481.763.763,0,0,0-.517-.143,2.757,2.757,0,0,0-.619.09c-.251.06-.608.171-1.074.333l-.575.2a.2.2,0,0,1-.26-.185v-1.2a.2.2,0,0,1,.129-.184l.283-.1a10.43,10.43,0,0,1,1.423-.439,5.35,5.35,0,0,1,1.125-.132q2.084,0,2.083,2.157v3.3a.2.2,0,0,1-.2.195H97.06a.2.2,0,0,1-.2-.195v-.45a3.316,3.316,0,0,1-1.956.751m.064-1.85c0,.261.144.391.433.391a1.536,1.536,0,0,0,.6-.137,5.882,5.882,0,0,0,.841-.476v-.487l-1.174.222a1.473,1.473,0,0,0-.555.18.359.359,0,0,0-.142.307" transform="translate(-21.652 -8.54)" fill="#004777"/>
        <path id="Trazado_1754" data-name="Trazado 1754" d="M67.5,54.154v-6.8a.2.2,0,0,1,.2-.2h1.6a.2.2,0,0,1,.2.2v2.368a.2.2,0,0,0,.2.2h2.56a.2.2,0,0,0,.195-.2V47.355a.2.2,0,0,1,.2-.2h1.6a.2.2,0,0,1,.2.2v6.8a.2.2,0,0,1-.2.2h-1.6a.2.2,0,0,1-.2-.2V51.785a.2.2,0,0,0-.195-.2h-2.56a.2.2,0,0,0-.2.2v2.368a.2.2,0,0,1-.2.2H67.7a.2.2,0,0,1-.2-.2" transform="translate(-15.695 -10.965)" fill="#004777"/>
        <path id="Trazado_1755" data-name="Trazado 1755" d="M80.331,54.92a2.546,2.546,0,0,1-1.925-.735,2.752,2.752,0,0,1-.708-1.993v-.254a2.925,2.925,0,0,1,.355-1.47,2.438,2.438,0,0,1,1-.968,3.229,3.229,0,0,1,1.528-.344,2.931,2.931,0,0,1,2.067.672,2.489,2.489,0,0,1,.724,1.919V52.3a.2.2,0,0,1-.2.195H79.612a.9.9,0,0,0,1.026.825,3.825,3.825,0,0,0,.761-.079,9.9,9.9,0,0,0,.962-.259l.569-.183a.2.2,0,0,1,.256.186v1.19a.2.2,0,0,1-.131.184l-.471.166a7.5,7.5,0,0,1-1.116.3,6.53,6.53,0,0,1-1.137.1m.233-4.357a.867.867,0,0,0-.941.835H81.5a.867.867,0,0,0-.941-.835" transform="translate(-18.066 -11.429)" fill="#004777"/>
        <path id="Trazado_1756" data-name="Trazado 1756" d="M86.324,54.618V49.458a.2.2,0,0,1,.195-.2H88a.2.2,0,0,1,.2.2V50a4.307,4.307,0,0,1,.978-.645,2.256,2.256,0,0,1,.926-.2,1.6,1.6,0,0,1,1.295.545,2.338,2.338,0,0,1,.46,1.55v3.368a.2.2,0,0,1-.2.2h-1.5a.2.2,0,0,1-.2-.2v-3.03a.923.923,0,0,0-.159-.576.527.527,0,0,0-.444-.206,1,1,0,0,0-.471.127,3.951,3.951,0,0,0-.608.434l-.064.053v3.2a.2.2,0,0,1-.195.2h-1.5a.2.2,0,0,1-.195-.2" transform="translate(-20.071 -11.429)" fill="#004777"/>
        <path id="Trazado_1757" data-name="Trazado 1757" d="M95.045,54.624V49.463a.2.2,0,0,1,.2-.2h1.48a.2.2,0,0,1,.2.2v.714l.3-.222a8.042,8.042,0,0,1,.693-.465,2.5,2.5,0,0,1,.54-.243,2.094,2.094,0,0,1,.285-.064.2.2,0,0,1,.228.195v1.489a.2.2,0,0,1-.188.195,3.857,3.857,0,0,0-.727.109,4.959,4.959,0,0,0-.968.391l-.137.074v2.987a.2.2,0,0,1-.2.2h-1.5a.2.2,0,0,1-.2-.2" transform="translate(-22.099 -11.435)" fill="#004777"/>
        <path id="Trazado_1758" data-name="Trazado 1758" d="M103.088,45.464l.61,1.2a.2.2,0,0,1-.085.263l-1.955.967a.2.2,0,0,1-.263-.086l-.425-.841a.2.2,0,0,1,.085-.262l1.77-1.322a.2.2,0,0,1,.263.085m-2,8.271V48.574a.2.2,0,0,1,.2-.2h1.5a.2.2,0,0,1,.2.2v5.161a.2.2,0,0,1-.2.2h-1.5a.2.2,0,0,1-.2-.2" transform="translate(-23.472 -10.546)" fill="#004777"/>
        <path id="Trazado_1759" data-name="Trazado 1759" d="M107.028,54.92a2,2,0,0,1-1.649-.73,3.118,3.118,0,0,1-.592-2.02v-.264a3.137,3.137,0,0,1,.587-2.019,1.956,1.956,0,0,1,1.612-.73,2.42,2.42,0,0,1,.92.185,4.478,4.478,0,0,1,1,.608v-.492a.2.2,0,0,1,.195-.195h1.48a.2.2,0,0,1,.2.195v7.276a.2.2,0,0,1-.2.2h-1.5a.2.2,0,0,1-.2-.2V54.117a4.856,4.856,0,0,1-1.01.624,2.188,2.188,0,0,1-.851.18m-.286-2.771a1.466,1.466,0,0,0,.222.867.737.737,0,0,0,.635.306,1.148,1.148,0,0,0,.518-.132,3.837,3.837,0,0,0,.655-.449l.117-.1V51.43l-.117-.1a3.85,3.85,0,0,0-.655-.45,1.158,1.158,0,0,0-.518-.132.738.738,0,0,0-.635.307,1.464,1.464,0,0,0-.222.867Z" transform="translate(-24.364 -11.43)" fill="#004777"/>
        <path id="Trazado_1760" data-name="Trazado 1760" d="M115.855,54.951a1.6,1.6,0,0,1-1.3-.55,2.343,2.343,0,0,1-.46-1.544V49.49a.2.2,0,0,1,.2-.2h1.5a.2.2,0,0,1,.2.2v3.029a.924.924,0,0,0,.159.576.529.529,0,0,0,.444.206.939.939,0,0,0,.449-.117,3.073,3.073,0,0,0,.523-.381l.106-.1V49.49a.2.2,0,0,1,.2-.2h1.5a.2.2,0,0,1,.2.2v5.16a.2.2,0,0,1-.2.2h-1.48a.2.2,0,0,1-.2-.2v-.513a3.771,3.771,0,0,1-.956.635,2.267,2.267,0,0,1-.883.18" transform="translate(-26.53 -11.461)" fill="#004777"/>
        <path id="Trazado_1761" data-name="Trazado 1761" d="M125.041,54.92a2.546,2.546,0,0,1-1.925-.735,2.752,2.752,0,0,1-.708-1.993v-.254a2.924,2.924,0,0,1,.355-1.47,2.441,2.441,0,0,1,1-.968,3.232,3.232,0,0,1,1.528-.344,2.931,2.931,0,0,1,2.068.672,2.489,2.489,0,0,1,.725,1.919V52.3a.2.2,0,0,1-.2.195h-3.569a.9.9,0,0,0,1.025.825,3.819,3.819,0,0,0,.761-.079,9.847,9.847,0,0,0,.962-.259l.569-.183a.2.2,0,0,1,.256.186v1.19a.2.2,0,0,1-.131.184l-.471.166a7.5,7.5,0,0,1-1.116.3,6.53,6.53,0,0,1-1.137.1m.233-4.357a.867.867,0,0,0-.941.835h1.882a.867.867,0,0,0-.941-.835" transform="translate(-28.461 -11.429)" fill="#004777"/>
        <path id="Trazado_1762" data-name="Trazado 1762" d="M130.62,54.65V53.607a.392.392,0,0,1,.12-.282l2.576-2.465H131a.2.2,0,0,1-.2-.195V49.49a.2.2,0,0,1,.2-.2h4.558a.2.2,0,0,1,.195.2v1.033a.392.392,0,0,1-.12.283l-2.586,2.475h2.692a.2.2,0,0,1,.2.195V54.65a.2.2,0,0,1-.2.2h-4.917a.2.2,0,0,1-.2-.2" transform="translate(-30.371 -11.461)" fill="#004777"/>
        <path id="Trazado_1763" data-name="Trazado 1763" d="M69.137,2.78v.439l-.564.1V6.194a1.111,1.111,0,0,0,.325.866,1.226,1.226,0,0,0,.857.3,1.336,1.336,0,0,0,.9-.295A1.081,1.081,0,0,0,71,6.194V3.316l-.564-.1V2.78h1.809v.439l-.563.1V6.194a1.53,1.53,0,0,1-.535,1.257,2.125,2.125,0,0,1-1.392.437,2.014,2.014,0,0,1-1.348-.437,1.557,1.557,0,0,1-.516-1.257V3.316l-.563-.1V2.78h1.809Z" transform="translate(-15.655 -0.646)" fill="#004777"/>
        <path id="Trazado_1764" data-name="Trazado 1764" d="M74.5,7.751l.564-.1V4.981l-.564-.1V4.445h1.173L75.724,5a1.356,1.356,0,0,1,.469-.462,1.255,1.255,0,0,1,.642-.164,1.224,1.224,0,0,1,.937.355,1.556,1.556,0,0,1,.332,1.1v1.83l.564.1v.436H76.858V7.751l.564-.1V5.839a1.011,1.011,0,0,0-.2-.7.783.783,0,0,0-.6-.207.959.959,0,0,0-.52.141,1.035,1.035,0,0,0-.361.388v2.2l.563.1v.436H74.5Z" transform="translate(-17.323 -1.017)" fill="#004777"/>
        <path id="Trazado_1765" data-name="Trazado 1765" d="M80.8,7.27l.564-.1V4.5L80.8,4.4v-.44H82.05v3.21l.564.1v.436H80.8ZM82.05,3.005h-.682v-.7h.682Z" transform="translate(-18.788 -0.537)" fill="#004777"/>
        <path id="Trazado_1766" data-name="Trazado 1766" d="M85.3,4.9l-.45.069L85.624,7.1l.062.27h.021l.066-.27.747-2.131L86.066,4.9V4.465h1.447V4.9l-.308.052L85.949,8.208h-.516L84.164,4.956,83.856,4.9V4.465H85.3Z" transform="translate(-19.498 -1.038)" fill="#004777"/>
        <path id="Trazado_1767" data-name="Trazado 1767" d="M91.1,8.258a1.578,1.578,0,0,1-1.243-.52A1.96,1.96,0,0,1,89.4,6.387V6.235a1.918,1.918,0,0,1,.476-1.33A1.465,1.465,0,0,1,91,4.374a1.42,1.42,0,0,1,1.143.457,1.816,1.816,0,0,1,.389,1.218v.425H90.1l-.01.017a1.479,1.479,0,0,0,.273.887.87.87,0,0,0,.737.348,1.71,1.71,0,0,0,.607-.1,1.408,1.408,0,0,0,.451-.272l.266.443a1.627,1.627,0,0,1-.531.327,2.118,2.118,0,0,1-.794.133M91,4.91a.74.74,0,0,0-.585.289,1.371,1.371,0,0,0-.3.725l.006.018h1.727v-.09a1.044,1.044,0,0,0-.215-.671A.763.763,0,0,0,91,4.91" transform="translate(-20.786 -1.017)" fill="#004777"/>
        <path id="Trazado_1768" data-name="Trazado 1768" d="M94.584,4.883V4.444h1.173l.065.543a1.321,1.321,0,0,1,.393-.45.913.913,0,0,1,.534-.162,1.207,1.207,0,0,1,.164.012.986.986,0,0,1,.13.026l-.091.633-.388-.021a.783.783,0,0,0-.453.126.82.82,0,0,0-.283.355V7.654l.563.1v.436H94.584V7.75l.564-.1V4.98Z" transform="translate(-21.992 -1.017)" fill="#004777"/>
        <path id="Trazado_1769" data-name="Trazado 1769" d="M101.526,5.62h-.512l-.111-.45a.913.913,0,0,0-.313-.188,1.2,1.2,0,0,0-.427-.071.783.783,0,0,0-.54.16.5.5,0,0,0-.177.384A.429.429,0,0,0,99.6,5.8a1.614,1.614,0,0,0,.633.228,2.734,2.734,0,0,1,1.055.414.832.832,0,0,1,.346.7.968.968,0,0,1-.4.807,1.688,1.688,0,0,1-1.053.308,2.722,2.722,0,0,1-.764-.1,2,2,0,0,1-.606-.286l0-.854h.513l.127.5a.715.715,0,0,0,.32.156,1.773,1.773,0,0,0,.414.048.96.96,0,0,0,.569-.147.453.453,0,0,0,.206-.385.465.465,0,0,0-.172-.371,1.6,1.6,0,0,0-.649-.253,2.726,2.726,0,0,1-1.027-.4.814.814,0,0,1-.346-.692.976.976,0,0,1,.389-.778,1.534,1.534,0,0,1,1.012-.322,2.46,2.46,0,0,1,.764.111,1.6,1.6,0,0,1,.564.308Z" transform="translate(-22.963 -1.017)" fill="#004777"/>
        <path id="Trazado_1770" data-name="Trazado 1770" d="M103.568,7.27l.564-.1V4.5l-.564-.1v-.44h1.246v3.21l.563.1v.436h-1.809Zm1.246-4.265h-.682v-.7h.682Z" transform="translate(-24.081 -0.537)" fill="#004777"/>
        <path id="Trazado_1771" data-name="Trazado 1771" d="M109.354,7.261a1.212,1.212,0,0,1-.447.388,1.368,1.368,0,0,1-.615.131,1.282,1.282,0,0,1-1.071-.5,2.073,2.073,0,0,1-.385-1.305V5.9a2.5,2.5,0,0,1,.385-1.456A1.241,1.241,0,0,1,108.3,3.9a1.333,1.333,0,0,1,.586.123,1.211,1.211,0,0,1,.434.355V2.847l-.564-.1V2.311H110V7.174l.564.1v.435h-1.156Zm-1.837-1.283a1.593,1.593,0,0,0,.232.906.8.8,0,0,0,.716.342.906.906,0,0,0,.512-.138,1.052,1.052,0,0,0,.342-.391V4.96a1.058,1.058,0,0,0-.342-.374.9.9,0,0,0-.505-.138.775.775,0,0,0-.721.4,2.088,2.088,0,0,0-.234,1.051Z" transform="translate(-24.841 -0.537)" fill="#004777"/>
        <path id="Trazado_1772" data-name="Trazado 1772" d="M115.058,8.186c-.021-.1-.037-.193-.048-.273s-.02-.161-.025-.243a1.641,1.641,0,0,1-.493.421,1.415,1.415,0,0,1-1.52-.117,1.05,1.05,0,0,1-.3-.8.932.932,0,0,1,.431-.822,2.105,2.105,0,0,1,1.181-.289h.7V5.623a.676.676,0,0,0-.207-.521.817.817,0,0,0-.578-.192,1.4,1.4,0,0,0-.451.066.86.86,0,0,0-.317.18l-.072.394h-.526V4.824a2.025,2.025,0,0,1,.619-.327,2.456,2.456,0,0,1,.788-.123,1.569,1.569,0,0,1,1.031.325,1.137,1.137,0,0,1,.394.93v1.8c0,.048,0,.1,0,.142s0,.092.008.138l.277.038v.436Zm-1.1-.5a1.2,1.2,0,0,0,.619-.163,1,1,0,0,0,.4-.391V6.519h-.726a1.037,1.037,0,0,0-.662.193.582.582,0,0,0-.244.47.467.467,0,0,0,.152.375.7.7,0,0,0,.46.13" transform="translate(-26.197 -1.017)" fill="#004777"/>
        <path id="Trazado_1773" data-name="Trazado 1773" d="M120.437,7.261a1.212,1.212,0,0,1-.447.388,1.368,1.368,0,0,1-.615.131,1.282,1.282,0,0,1-1.071-.5,2.073,2.073,0,0,1-.385-1.305V5.9a2.5,2.5,0,0,1,.385-1.456,1.241,1.241,0,0,1,1.078-.553,1.333,1.333,0,0,1,.586.123,1.211,1.211,0,0,1,.434.355V2.847l-.564-.1V2.311h1.246V7.174l.564.1v.435h-1.156ZM118.6,5.977a1.593,1.593,0,0,0,.232.906.8.8,0,0,0,.716.342.906.906,0,0,0,.512-.138A1.052,1.052,0,0,0,120.4,6.7V4.96a1.058,1.058,0,0,0-.342-.374.9.9,0,0,0-.505-.138.775.775,0,0,0-.721.4A2.088,2.088,0,0,0,118.6,5.9Z" transform="translate(-27.418 -0.537)" fill="#004777"/>
        <path id="Trazado_1774" data-name="Trazado 1774" d="M71.282,13.534H70.8l-.127-.713a1.309,1.309,0,0,0-.408-.266,1.448,1.448,0,0,0-.578-.1,1.413,1.413,0,0,0-1.206.569,2.356,2.356,0,0,0-.422,1.444v.08a2.415,2.415,0,0,0,.413,1.447,1.338,1.338,0,0,0,1.147.573,1.716,1.716,0,0,0,.623-.107,1.192,1.192,0,0,0,.432-.262l.127-.713h.481v.9a1.879,1.879,0,0,1-.654.5,2.222,2.222,0,0,1-1.01.22,2.037,2.037,0,0,1-1.612-.726,2.689,2.689,0,0,1-.629-1.827v-.073A2.719,2.719,0,0,1,68,12.64a2.03,2.03,0,0,1,1.622-.725,2.183,2.183,0,0,1,1.01.223,1.925,1.925,0,0,1,.654.5Z" transform="translate(-15.666 -2.77)" fill="#004777"/>
        <path id="Trazado_1775" data-name="Trazado 1775" d="M76.1,17.416c-.021-.1-.037-.192-.048-.272s-.02-.161-.025-.243a1.653,1.653,0,0,1-.493.421,1.415,1.415,0,0,1-1.52-.117,1.052,1.052,0,0,1-.3-.8.932.932,0,0,1,.431-.822,2.1,2.1,0,0,1,1.181-.289h.7v-.436a.675.675,0,0,0-.207-.52.817.817,0,0,0-.578-.192,1.419,1.419,0,0,0-.451.065.861.861,0,0,0-.317.18l-.072.394h-.526v-.726a2.026,2.026,0,0,1,.619-.327,2.438,2.438,0,0,1,.788-.123,1.564,1.564,0,0,1,1.031.325,1.135,1.135,0,0,1,.394.93v1.8c0,.048,0,.1,0,.142s0,.093.008.138l.277.038v.435Zm-1.1-.5a1.211,1.211,0,0,0,.619-.163,1,1,0,0,0,.4-.391v-.616H75.3a1.037,1.037,0,0,0-.662.194.581.581,0,0,0-.244.47.467.467,0,0,0,.152.375.7.7,0,0,0,.46.13" transform="translate(-17.139 -3.163)" fill="#004777"/>
        <path id="Trazado_1776" data-name="Trazado 1776" d="M80.121,12.519v.9h.709v.505h-.709V16.2a.507.507,0,0,0,.109.369.4.4,0,0,0,.289.107,1.552,1.552,0,0,0,.2-.015c.074-.011.138-.021.189-.033L81,17.1a.864.864,0,0,1-.283.1,1.774,1.774,0,0,1-.374.04.88.88,0,0,1-.66-.251,1.085,1.085,0,0,1-.246-.786V13.927h-.592v-.505h.592v-.9Z" transform="translate(-18.333 -2.911)" fill="#004777"/>
        <path id="Trazado_1777" data-name="Trazado 1777" d="M82.482,15.1a2.061,2.061,0,0,1,.45-1.368,1.662,1.662,0,0,1,2.447,0,2.051,2.051,0,0,1,.451,1.37v.076a2.054,2.054,0,0,1-.449,1.37,1.671,1.671,0,0,1-2.449,0,2.049,2.049,0,0,1-.45-1.368Zm.682.076a1.775,1.775,0,0,0,.25.982.9.9,0,0,0,1.483,0,1.768,1.768,0,0,0,.252-.982V15.1a1.774,1.774,0,0,0-.252-.979.831.831,0,0,0-.744-.391.822.822,0,0,0-.741.391,1.793,1.793,0,0,0-.249.979Zm1.19-3.352h.8l.008.021-.931.9h-.509Z" transform="translate(-19.178 -2.748)" fill="#004777"/>
        <path id="Trazado_1778" data-name="Trazado 1778" d="M87.675,11.98v-.44h1.245V16.4l.564.1v.435H87.675V16.5l.563-.1V12.076Z" transform="translate(-20.385 -2.683)" fill="#004777"/>
        <path id="Trazado_1779" data-name="Trazado 1779" d="M90.934,16.5l.563-.1V13.73l-.563-.1v-.44h1.245V16.4l.564.1v.436H90.934Zm1.245-4.265H91.5v-.7h.682Z" transform="translate(-21.143 -2.683)" fill="#004777"/>
        <path id="Trazado_1780" data-name="Trazado 1780" d="M95.879,16.956a.92.92,0,0,0,.6-.21.641.641,0,0,0,.258-.513h.612l.007.021a1.047,1.047,0,0,1-.431.859,1.571,1.571,0,0,1-1.043.376,1.51,1.51,0,0,1-1.246-.533,2.059,2.059,0,0,1-.431-1.339v-.145a2.049,2.049,0,0,1,.433-1.333,1.509,1.509,0,0,1,1.245-.535,2.088,2.088,0,0,1,.807.149,1.65,1.65,0,0,1,.594.408l.031.83h-.543l-.148-.589a.9.9,0,0,0-.312-.19,1.181,1.181,0,0,0-.429-.073.823.823,0,0,0-.766.385,1.818,1.818,0,0,0-.23.946v.145a1.85,1.85,0,0,0,.228.957.826.826,0,0,0,.768.382" transform="translate(-21.903 -3.163)" fill="#004777"/>
        <path id="Trazado_1781" data-name="Trazado 1781" d="M101.861,17.416c-.021-.1-.037-.192-.048-.272s-.02-.161-.025-.243a1.652,1.652,0,0,1-.493.421,1.415,1.415,0,0,1-1.52-.117,1.052,1.052,0,0,1-.3-.8.932.932,0,0,1,.431-.822,2.1,2.1,0,0,1,1.181-.289h.7v-.436a.675.675,0,0,0-.207-.52.817.817,0,0,0-.578-.192,1.419,1.419,0,0,0-.451.065.861.861,0,0,0-.317.18l-.072.394h-.526v-.726a2.026,2.026,0,0,1,.619-.327,2.438,2.438,0,0,1,.788-.123,1.564,1.564,0,0,1,1.031.325,1.135,1.135,0,0,1,.394.93v1.8c0,.048,0,.1,0,.142s0,.093.008.138l.277.038v.435Zm-1.1-.5a1.211,1.211,0,0,0,.619-.163,1,1,0,0,0,.4-.391v-.616h-.726a1.037,1.037,0,0,0-.662.194.581.581,0,0,0-.244.47.467.467,0,0,0,.152.375.7.7,0,0,0,.46.13" transform="translate(-23.128 -3.163)" fill="#004777"/>
      </g>
    </g>
  </g>
</svg>
