<svg xmlns="http://www.w3.org/2000/svg" xmlns:xlink="http://www.w3.org/1999/xlink" width="115.998" height="50" viewBox="0 0 115.998 50">
  <defs>
    <clipPath id="clip-path">
      <rect id="Rectángulo_666" data-name="Rectángulo 666" width="115.998" height="50" fill="#f8bd01"/>
    </clipPath>
  </defs>
  <g id="Grupo_803" data-name="Grupo 803" transform="translate(0 0)">
    <rect id="Rectángulo_654" data-name="Rectángulo 654" width="5.167" height="22.098" transform="translate(32.755 0)" fill="#f8bd01"/>
    <rect id="Rectángulo_655" data-name="Rectángulo 655" width="17.652" height="5.2" transform="translate(26.264 22.099)" fill="#f8bd01"/>
    <rect id="Rectángulo_656" data-name="Rectángulo 656" width="22.024" height="5.2" transform="translate(0 22.099)" fill="#f8bd01"/>
    <g id="Grupo_784" data-name="Grupo 784" transform="translate(0 0)">
      <g id="Grupo_783" data-name="Grupo 783" clip-path="url(#clip-path)">
        <path id="Trazado_1746" data-name="Trazado 1746" d="M53.529,54.177V52.4H31.14v5.2H50.1a3.437,3.437,0,0,0,3.427-3.427" transform="translate(-4.877 -8.207)" fill="#f8bd01"/>
        <path id="Trazado_1747" data-name="Trazado 1747" d="M22.1,57.6V52.4H.511V54.4A3.208,3.208,0,0,0,3.718,57.6Z" transform="translate(-0.08 -8.206)" fill="#f8bd01"/>
        <rect id="Rectángulo_657" data-name="Rectángulo 657" width="48.652" height="5.2" transform="translate(0.001 33.364)" fill="#f8bd01"/>
        <rect id="Rectángulo_658" data-name="Rectángulo 658" width="5.167" height="16.898" transform="translate(32.755 27.298)" fill="#f8bd01"/>
        <path id="Trazado_1748" data-name="Trazado 1748" d="M51.56,45.725V56.558H53.3a3.436,3.436,0,0,0,3.427-3.427V45.725Z" transform="translate(-8.075 -7.161)" fill="#f8bd01"/>
        <rect id="Rectángulo_659" data-name="Rectángulo 659" width="5.167" height="33.364" transform="translate(43.486)" fill="#f8bd01"/>
        <rect id="Rectángulo_660" data-name="Rectángulo 660" width="5.167" height="33.364" transform="translate(22.024)" fill="#f8bd01"/>
        <rect id="Rectángulo_661" data-name="Rectángulo 661" width="5.167" height="10.833" transform="translate(22.024 38.563)" fill="#f8bd01"/>
        <rect id="Rectángulo_662" data-name="Rectángulo 662" width="0.861" height="17.765" transform="translate(9.473 1.3)" fill="#f8bd01"/>
        <rect id="Rectángulo_663" data-name="Rectángulo 663" width="17.765" height="0.861" transform="translate(1.021 9.752)" fill="#f8bd01"/>
        <rect id="Rectángulo_664" data-name="Rectángulo 664" width="0.861" height="17.765" transform="translate(3.318 4.207) rotate(-45)" fill="#f8bd01"/>
        <rect id="Rectángulo_665" data-name="Rectángulo 665" width="17.765" height="0.861" transform="translate(3.318 16.16) rotate(-45)" fill="#f8bd01"/>
        <path id="Trazado_1749" data-name="Trazado 1749" d="M71.726,42.774a7.69,7.69,0,0,1-1.8-.215,10.4,10.4,0,0,1-1.905-.68l-.385-.175a.215.215,0,0,1-.127-.2V39.9a.215.215,0,0,1,.308-.194l.669.319a13.842,13.842,0,0,0,1.8.72,4.63,4.63,0,0,0,1.33.232.977.977,0,0,0,.593-.163.52.52,0,0,0,.221-.441.412.412,0,0,0-.186-.36,2.089,2.089,0,0,0-.7-.233l-1.557-.326a3.547,3.547,0,0,1-1.8-.807,2.112,2.112,0,0,1-.535-1.552,2.5,2.5,0,0,1,.36-1.354,2.426,2.426,0,0,1,1.011-.895,3.421,3.421,0,0,1,1.522-.32,6.714,6.714,0,0,1,1.452.163,15.19,15.19,0,0,1,1.72.512l.341.12a.428.428,0,0,1,.287.4v1.383a.214.214,0,0,1-.291.2l-.72-.272q-.72-.28-1.2-.43a7.486,7.486,0,0,0-.819-.215,3.536,3.536,0,0,0-.65-.064.978.978,0,0,0-.581.151.487.487,0,0,0-.209.418.48.48,0,0,0,.162.384,1.232,1.232,0,0,0,.524.221l1.638.337a5.321,5.321,0,0,1,1.441.477,1.81,1.81,0,0,1,.773.75,2.5,2.5,0,0,1,.238,1.156,2.375,2.375,0,0,1-.767,1.882,3.149,3.149,0,0,1-2.15.674" transform="translate(-10.572 -5.406)" fill="#f8bd01"/>
        <path id="Trazado_1750" data-name="Trazado 1750" d="M77.1,35.457V33.981a.215.215,0,0,1,.215-.215h1.86a.215.215,0,0,1,.214.215v1.476a.215.215,0,0,1-.214.215h-1.86a.215.215,0,0,1-.215-.215m.1,6.81V36.6a.215.215,0,0,1,.215-.215h1.65a.215.215,0,0,1,.215.215v5.671a.215.215,0,0,1-.215.215h-1.65a.215.215,0,0,1-.215-.215" transform="translate(-12.074 -5.288)" fill="#f8bd01"/>
        <path id="Trazado_1751" data-name="Trazado 1751" d="M82.762,42.62a1.475,1.475,0,0,1-1.168-.43,2.009,2.009,0,0,1-.378-1.348V34.119a.215.215,0,0,1,.215-.215h1.651a.215.215,0,0,1,.215.215v6.223c0,.232.085.345.256.348a1.277,1.277,0,0,0,.5-.149.214.214,0,0,1,.3.2v1.3a.215.215,0,0,1-.127.2c-.178.078-.493.214-.612.251a2.911,2.911,0,0,1-.852.133" transform="translate(-12.719 -5.309)" fill="#f8bd01"/>
        <path id="Trazado_1752" data-name="Trazado 1752" d="M87.189,42.834l-2.344-5.671a.214.214,0,0,1,.2-.3h1.771a.214.214,0,0,1,.2.141L88.3,40.526l1.274-3.519a.214.214,0,0,1,.2-.142h1.678a.215.215,0,0,1,.2.3l-2.344,5.671a.217.217,0,0,1-.2.133H87.388a.215.215,0,0,1-.2-.133" transform="translate(-13.284 -5.773)" fill="#f8bd01"/>
        <path id="Trazado_1753" data-name="Trazado 1753" d="M95.085,43.061a2.11,2.11,0,0,1-1.447-.459,1.63,1.63,0,0,1-.517-1.284,1.584,1.584,0,0,1,.587-1.342,4.161,4.161,0,0,1,1.981-.61l1.522-.175a.718.718,0,0,0-.186-.529.839.839,0,0,0-.568-.157,3.03,3.03,0,0,0-.68.1c-.276.066-.668.188-1.18.366l-.632.224a.215.215,0,0,1-.286-.2V37.669a.216.216,0,0,1,.142-.2l.311-.111a11.462,11.462,0,0,1,1.564-.482,5.88,5.88,0,0,1,1.236-.145q2.29,0,2.289,2.371V42.73a.214.214,0,0,1-.215.214H97.449a.215.215,0,0,1-.215-.214v-.494a3.644,3.644,0,0,1-2.149.825m.07-2.033c0,.287.158.43.476.43a1.688,1.688,0,0,0,.656-.151,6.463,6.463,0,0,0,.924-.523v-.535l-1.29.244a1.619,1.619,0,0,0-.61.2.394.394,0,0,0-.156.337" transform="translate(-14.583 -5.752)" fill="#f8bd01"/>
        <path id="Trazado_1754" data-name="Trazado 1754" d="M67.5,54.846V47.374a.215.215,0,0,1,.215-.215h1.754a.215.215,0,0,1,.215.215v2.6a.215.215,0,0,0,.215.215h2.813a.215.215,0,0,0,.214-.215v-2.6a.215.215,0,0,1,.215-.215H74.9a.215.215,0,0,1,.215.215v7.472a.215.215,0,0,1-.215.215H73.144a.215.215,0,0,1-.215-.215v-2.6a.215.215,0,0,0-.214-.215H69.9a.215.215,0,0,0-.215.215v2.6a.215.215,0,0,1-.215.215H67.718a.215.215,0,0,1-.215-.215" transform="translate(-10.571 -7.385)" fill="#f8bd01"/>
        <path id="Trazado_1755" data-name="Trazado 1755" d="M80.592,55.49a2.8,2.8,0,0,1-2.115-.808,3.024,3.024,0,0,1-.778-2.19v-.279a3.214,3.214,0,0,1,.39-1.615,2.679,2.679,0,0,1,1.1-1.064,3.549,3.549,0,0,1,1.679-.378,3.221,3.221,0,0,1,2.271.738,2.736,2.736,0,0,1,.8,2.109v.611a.215.215,0,0,1-.215.214H79.8a.991.991,0,0,0,1.128.907,4.2,4.2,0,0,0,.837-.087,10.88,10.88,0,0,0,1.057-.285l.626-.2a.215.215,0,0,1,.281.2v1.308a.214.214,0,0,1-.144.2l-.518.182a8.248,8.248,0,0,1-1.226.326,7.176,7.176,0,0,1-1.249.1m.256-4.788a.953.953,0,0,0-1.034.918h2.068a.953.953,0,0,0-1.034-.918" transform="translate(-12.168 -7.698)" fill="#f8bd01"/>
        <path id="Trazado_1756" data-name="Trazado 1756" d="M86.324,55.158V49.487a.215.215,0,0,1,.214-.215h1.627a.215.215,0,0,1,.215.215v.6a4.732,4.732,0,0,1,1.074-.709,2.479,2.479,0,0,1,1.018-.221,1.762,1.762,0,0,1,1.423.6,2.569,2.569,0,0,1,.505,1.7v3.7a.215.215,0,0,1-.215.215h-1.65a.215.215,0,0,1-.215-.215v-3.33a1.015,1.015,0,0,0-.175-.633.579.579,0,0,0-.487-.227,1.1,1.1,0,0,0-.518.139,4.34,4.34,0,0,0-.668.477l-.07.058v3.515a.215.215,0,0,1-.214.215H86.538a.215.215,0,0,1-.214-.215" transform="translate(-13.519 -7.698)" fill="#f8bd01"/>
        <path id="Trazado_1757" data-name="Trazado 1757" d="M95.045,55.162V49.491a.215.215,0,0,1,.215-.215h1.627a.215.215,0,0,1,.215.215v.784l.325-.244a8.836,8.836,0,0,1,.762-.511,2.745,2.745,0,0,1,.593-.267,2.3,2.3,0,0,1,.313-.07.217.217,0,0,1,.25.214v1.636a.216.216,0,0,1-.207.214,4.239,4.239,0,0,0-.8.12,5.45,5.45,0,0,0-1.064.43l-.151.082v3.282a.215.215,0,0,1-.215.215H95.26a.215.215,0,0,1-.215-.215" transform="translate(-14.884 -7.702)" fill="#f8bd01"/>
        <path id="Trazado_1758" data-name="Trazado 1758" d="M103.3,45.474l.67,1.314a.215.215,0,0,1-.094.289l-2.148,1.063a.215.215,0,0,1-.289-.094l-.467-.924a.214.214,0,0,1,.094-.288l1.945-1.452a.215.215,0,0,1,.289.094m-2.194,9.089V48.893a.215.215,0,0,1,.215-.215h1.65a.215.215,0,0,1,.215.215v5.671a.215.215,0,0,1-.215.215h-1.65a.215.215,0,0,1-.215-.215" transform="translate(-15.809 -7.103)" fill="#f8bd01"/>
        <path id="Trazado_1759" data-name="Trazado 1759" d="M107.25,55.49a2.2,2.2,0,0,1-1.812-.8,3.426,3.426,0,0,1-.651-2.22v-.29a3.447,3.447,0,0,1,.645-2.219,2.15,2.15,0,0,1,1.772-.8,2.659,2.659,0,0,1,1.011.2,4.921,4.921,0,0,1,1.1.668v-.541a.215.215,0,0,1,.214-.214h1.627a.215.215,0,0,1,.215.214v8a.215.215,0,0,1-.215.215h-1.65a.215.215,0,0,1-.215-.215V54.607a5.336,5.336,0,0,1-1.11.686,2.4,2.4,0,0,1-.935.2m-.314-3.045a1.611,1.611,0,0,0,.244.953.81.81,0,0,0,.7.337,1.262,1.262,0,0,0,.569-.145,4.217,4.217,0,0,0,.72-.493l.128-.1V51.655l-.128-.1a4.231,4.231,0,0,0-.72-.494,1.273,1.273,0,0,0-.569-.145.811.811,0,0,0-.7.337,1.609,1.609,0,0,0-.244.953Z" transform="translate(-16.41 -7.698)" fill="#f8bd01"/>
        <path id="Trazado_1760" data-name="Trazado 1760" d="M116.029,55.511a1.755,1.755,0,0,1-1.424-.6,2.575,2.575,0,0,1-.505-1.7v-3.7a.215.215,0,0,1,.215-.215h1.65a.215.215,0,0,1,.215.215v3.329a1.016,1.016,0,0,0,.175.633.582.582,0,0,0,.488.227,1.032,1.032,0,0,0,.493-.128,3.378,3.378,0,0,0,.575-.418l.116-.1V49.509a.215.215,0,0,1,.215-.215h1.65a.215.215,0,0,1,.215.215v5.67a.215.215,0,0,1-.215.215h-1.627a.215.215,0,0,1-.215-.215v-.563a4.144,4.144,0,0,1-1.051.7,2.491,2.491,0,0,1-.971.2" transform="translate(-17.869 -7.72)" fill="#f8bd01"/>
        <path id="Trazado_1761" data-name="Trazado 1761" d="M125.3,55.49a2.8,2.8,0,0,1-2.115-.808,3.024,3.024,0,0,1-.778-2.19v-.279a3.214,3.214,0,0,1,.39-1.615,2.682,2.682,0,0,1,1.1-1.064,3.551,3.551,0,0,1,1.679-.378,3.221,3.221,0,0,1,2.272.738,2.736,2.736,0,0,1,.8,2.109v.611a.215.215,0,0,1-.215.214h-3.922a.99.99,0,0,0,1.127.907,4.2,4.2,0,0,0,.837-.087,10.823,10.823,0,0,0,1.058-.285l.626-.2a.215.215,0,0,1,.281.2v1.308a.214.214,0,0,1-.144.2l-.518.182a8.247,8.247,0,0,1-1.226.326,7.176,7.176,0,0,1-1.249.1m.256-4.788a.953.953,0,0,0-1.034.918h2.068a.953.953,0,0,0-1.034-.918" transform="translate(-19.17 -7.698)" fill="#f8bd01"/>
        <path id="Trazado_1762" data-name="Trazado 1762" d="M130.62,55.18V54.033a.431.431,0,0,1,.132-.31l2.831-2.709h-2.551a.215.215,0,0,1-.215-.214v-1.29a.215.215,0,0,1,.215-.215h5.009a.215.215,0,0,1,.214.215v1.135a.431.431,0,0,1-.132.311l-2.842,2.72h2.958a.215.215,0,0,1,.215.214v1.29a.215.215,0,0,1-.215.215h-5.4a.215.215,0,0,1-.215-.215" transform="translate(-20.456 -7.72)" fill="#f8bd01"/>
        <path id="Trazado_1763" data-name="Trazado 1763" d="M69.316,2.78v.482l-.62.107V6.531a1.221,1.221,0,0,0,.358.952A1.347,1.347,0,0,0,70,7.809a1.468,1.468,0,0,0,.993-.324,1.188,1.188,0,0,0,.376-.954V3.37l-.62-.107V2.78h1.988v.482l-.619.107V6.531a1.681,1.681,0,0,1-.588,1.381A2.335,2.335,0,0,1,70,8.394a2.213,2.213,0,0,1-1.482-.481,1.711,1.711,0,0,1-.567-1.381V3.37l-.619-.107V2.78h1.988Z" transform="translate(-10.544 -0.435)" fill="#f8bd01"/>
        <path id="Trazado_1764" data-name="Trazado 1764" d="M74.5,8.085l.62-.106V5.04l-.62-.106V4.452h1.289l.053.611a1.49,1.49,0,0,1,.515-.508,1.379,1.379,0,0,1,.705-.18,1.345,1.345,0,0,1,1.03.39,1.709,1.709,0,0,1,.364,1.2V7.979l.62.106v.479H77.091V8.085l.62-.106v-2a1.111,1.111,0,0,0-.215-.772.861.861,0,0,0-.656-.228,1.054,1.054,0,0,0-.571.155,1.137,1.137,0,0,0-.4.426V7.979l.619.106v.479H74.5Z" transform="translate(-11.668 -0.685)" fill="#f8bd01"/>
        <path id="Trazado_1765" data-name="Trazado 1765" d="M80.8,7.761l.62-.106V4.716L80.8,4.61V4.127h1.369V7.655l.62.106V8.24H80.8Zm1.369-4.687h-.749V2.31h.749Z" transform="translate(-12.654 -0.362)" fill="#f8bd01"/>
        <path id="Trazado_1766" data-name="Trazado 1766" d="M85.445,4.948l-.494.076L85.8,7.365l.068.3h.023l.073-.3.821-2.341-.5-.076V4.465h1.59v.482l-.338.057-1.38,3.573H85.59L84.195,5.005l-.338-.057V4.465h1.589Z" transform="translate(-13.132 -0.699)" fill="#f8bd01"/>
        <path id="Trazado_1767" data-name="Trazado 1767" d="M91.27,8.642A1.734,1.734,0,0,1,89.9,8.071,2.154,2.154,0,0,1,89.4,6.586V6.419a2.107,2.107,0,0,1,.523-1.462,1.61,1.61,0,0,1,1.237-.584,1.561,1.561,0,0,1,1.256.5,2,2,0,0,1,.428,1.338v.467H90.171L90.16,6.7a1.625,1.625,0,0,0,.3.975.957.957,0,0,0,.81.383,1.879,1.879,0,0,0,.667-.109,1.548,1.548,0,0,0,.5-.3l.293.487a1.788,1.788,0,0,1-.584.359,2.327,2.327,0,0,1-.872.146m-.114-3.679a.814.814,0,0,0-.643.317,1.506,1.506,0,0,0-.326.8l.007.019h1.9V6a1.147,1.147,0,0,0-.236-.737.838.838,0,0,0-.7-.3" transform="translate(-14 -0.685)" fill="#f8bd01"/>
        <path id="Trazado_1768" data-name="Trazado 1768" d="M94.584,4.933V4.451h1.289l.072.6a1.452,1.452,0,0,1,.432-.494,1,1,0,0,1,.587-.178,1.326,1.326,0,0,1,.18.013,1.084,1.084,0,0,1,.143.029l-.1.7-.426-.023a.86.86,0,0,0-.5.138.9.9,0,0,0-.311.39V7.978l.619.106v.479H94.584V8.084l.62-.106V5.04Z" transform="translate(-14.812 -0.685)" fill="#f8bd01"/>
        <path id="Trazado_1769" data-name="Trazado 1769" d="M101.8,5.743h-.563l-.121-.494a1,1,0,0,0-.344-.207,1.322,1.322,0,0,0-.47-.078.86.86,0,0,0-.593.175.547.547,0,0,0-.194.422.471.471,0,0,0,.171.384,1.773,1.773,0,0,0,.7.25,3,3,0,0,1,1.159.455.914.914,0,0,1,.38.769,1.064,1.064,0,0,1-.443.886,1.855,1.855,0,0,1-1.157.338,2.992,2.992,0,0,1-.84-.109,2.2,2.2,0,0,1-.665-.314l0-.939h.563l.14.552A.786.786,0,0,0,99.866,8a1.948,1.948,0,0,0,.455.053,1.054,1.054,0,0,0,.625-.162.5.5,0,0,0,.227-.423.511.511,0,0,0-.189-.407,1.764,1.764,0,0,0-.713-.277,3,3,0,0,1-1.128-.444.894.894,0,0,1-.38-.76,1.073,1.073,0,0,1,.428-.855,1.686,1.686,0,0,1,1.112-.353,2.7,2.7,0,0,1,.84.121,1.754,1.754,0,0,1,.62.338Z" transform="translate(-15.467 -0.685)" fill="#f8bd01"/>
        <path id="Trazado_1770" data-name="Trazado 1770" d="M103.568,7.761l.62-.106V4.716l-.62-.106V4.127h1.369V7.655l.619.106V8.24h-1.988Zm1.369-4.687h-.749V2.31h.749Z" transform="translate(-16.219 -0.362)" fill="#f8bd01"/>
        <path id="Trazado_1771" data-name="Trazado 1771" d="M109.6,7.75a1.332,1.332,0,0,1-.492.426,1.5,1.5,0,0,1-.676.144,1.409,1.409,0,0,1-1.177-.546,2.278,2.278,0,0,1-.423-1.435V6.26a2.751,2.751,0,0,1,.423-1.6,1.364,1.364,0,0,1,1.185-.608,1.465,1.465,0,0,1,.644.135,1.331,1.331,0,0,1,.477.39V2.9l-.62-.106V2.311h1.369V7.655l.62.107V8.24h-1.27Zm-2.018-1.41a1.751,1.751,0,0,0,.255,1,.884.884,0,0,0,.787.376,1,1,0,0,0,.563-.152,1.156,1.156,0,0,0,.376-.43V5.222a1.163,1.163,0,0,0-.376-.411.993.993,0,0,0-.555-.152.851.851,0,0,0-.792.444,2.294,2.294,0,0,0-.257,1.155Z" transform="translate(-16.731 -0.362)" fill="#f8bd01"/>
        <path id="Trazado_1772" data-name="Trazado 1772" d="M115.294,8.563c-.023-.111-.04-.212-.052-.3s-.022-.177-.027-.267a1.8,1.8,0,0,1-.541.462A1.555,1.555,0,0,1,113,8.33a1.154,1.154,0,0,1-.335-.884,1.024,1.024,0,0,1,.473-.9,2.314,2.314,0,0,1,1.3-.317h.772V5.747a.743.743,0,0,0-.228-.573.9.9,0,0,0-.635-.211,1.535,1.535,0,0,0-.5.073.945.945,0,0,0-.348.2l-.079.434h-.578v-.8a2.226,2.226,0,0,1,.681-.359,2.7,2.7,0,0,1,.866-.135,1.724,1.724,0,0,1,1.133.358,1.25,1.25,0,0,1,.434,1.022v1.98c0,.053,0,.105,0,.156s0,.1.009.152l.3.042v.479Zm-1.2-.547a1.323,1.323,0,0,0,.68-.179,1.1,1.1,0,0,0,.441-.429V6.731h-.8a1.14,1.14,0,0,0-.728.213.64.64,0,0,0-.268.517.513.513,0,0,0,.167.412.771.771,0,0,0,.506.143" transform="translate(-17.644 -0.685)" fill="#f8bd01"/>
        <path id="Trazado_1773" data-name="Trazado 1773" d="M120.686,7.75a1.332,1.332,0,0,1-.492.426,1.5,1.5,0,0,1-.676.144,1.409,1.409,0,0,1-1.177-.546,2.278,2.278,0,0,1-.423-1.435V6.26a2.751,2.751,0,0,1,.423-1.6,1.364,1.364,0,0,1,1.185-.608,1.465,1.465,0,0,1,.644.135,1.331,1.331,0,0,1,.477.39V2.9l-.62-.106V2.311H121.4V7.655l.62.107V8.24h-1.27Zm-2.018-1.41a1.751,1.751,0,0,0,.255,1,.884.884,0,0,0,.787.376,1,1,0,0,0,.563-.152,1.156,1.156,0,0,0,.376-.43V5.222a1.163,1.163,0,0,0-.376-.411.993.993,0,0,0-.555-.152.851.851,0,0,0-.792.444,2.294,2.294,0,0,0-.257,1.155Z" transform="translate(-18.467 -0.362)" fill="#f8bd01"/>
        <path id="Trazado_1774" data-name="Trazado 1774" d="M71.668,13.694h-.529L71,12.91a1.439,1.439,0,0,0-.449-.292,1.591,1.591,0,0,0-.635-.115,1.552,1.552,0,0,0-1.326.626,2.589,2.589,0,0,0-.464,1.586V14.8a2.654,2.654,0,0,0,.454,1.591,1.47,1.47,0,0,0,1.26.629,1.886,1.886,0,0,0,.685-.118A1.31,1.31,0,0,0,71,16.617l.14-.784h.529v.984a2.065,2.065,0,0,1-.719.55,2.441,2.441,0,0,1-1.11.241,2.238,2.238,0,0,1-1.771-.8,2.955,2.955,0,0,1-.692-2.007v-.08a2.988,2.988,0,0,1,.681-2.012,2.231,2.231,0,0,1,1.782-.8,2.4,2.4,0,0,1,1.11.245,2.115,2.115,0,0,1,.719.549Z" transform="translate(-10.552 -1.866)" fill="#f8bd01"/>
        <path id="Trazado_1775" data-name="Trazado 1775" d="M76.336,17.793c-.023-.111-.04-.211-.052-.3s-.022-.177-.027-.267a1.816,1.816,0,0,1-.541.462,1.555,1.555,0,0,1-1.671-.129,1.156,1.156,0,0,1-.335-.884,1.024,1.024,0,0,1,.473-.9,2.307,2.307,0,0,1,1.3-.317h.772v-.479a.742.742,0,0,0-.228-.572.9.9,0,0,0-.635-.211,1.56,1.56,0,0,0-.5.072.946.946,0,0,0-.348.2l-.079.433h-.578v-.8a2.226,2.226,0,0,1,.681-.359,2.679,2.679,0,0,1,.866-.135,1.719,1.719,0,0,1,1.133.358A1.248,1.248,0,0,1,77,14.985v1.98c0,.053,0,.105,0,.156s0,.1.009.152l.3.042v.478Zm-1.2-.547a1.331,1.331,0,0,0,.68-.179,1.1,1.1,0,0,0,.441-.43v-.676h-.8a1.14,1.14,0,0,0-.728.213.639.639,0,0,0-.268.517.513.513,0,0,0,.167.412.771.771,0,0,0,.506.143" transform="translate(-11.543 -2.131)" fill="#f8bd01"/>
        <path id="Trazado_1776" data-name="Trazado 1776" d="M80.247,12.519v.992h.779v.555h-.779v2.5a.557.557,0,0,0,.12.406.434.434,0,0,0,.318.118,1.7,1.7,0,0,0,.222-.017c.082-.012.152-.024.207-.036l.1.514a.949.949,0,0,1-.311.111,1.949,1.949,0,0,1-.411.044.967.967,0,0,1-.725-.276,1.193,1.193,0,0,1-.271-.864v-2.5h-.65v-.555h.65v-.992Z" transform="translate(-12.348 -1.96)" fill="#f8bd01"/>
        <path id="Trazado_1777" data-name="Trazado 1777" d="M82.482,15.42a2.265,2.265,0,0,1,.494-1.5,1.826,1.826,0,0,1,2.689,0,2.254,2.254,0,0,1,.5,1.505V15.5a2.257,2.257,0,0,1-.493,1.505,1.837,1.837,0,0,1-2.691,0,2.252,2.252,0,0,1-.494-1.5Zm.749.083a1.95,1.95,0,0,0,.275,1.08.992.992,0,0,0,1.629,0,1.943,1.943,0,0,0,.277-1.08V15.42a1.949,1.949,0,0,0-.277-1.076.913.913,0,0,0-.817-.429.9.9,0,0,0-.814.429,1.97,1.97,0,0,0-.273,1.076Zm1.307-3.683h.874l.008.023-1.023.988h-.559Z" transform="translate(-12.917 -1.851)" fill="#f8bd01"/>
        <path id="Trazado_1778" data-name="Trazado 1778" d="M87.675,12.023V11.54h1.368v5.345l.62.107v.478H87.675v-.478l.619-.107V12.13Z" transform="translate(-13.73 -1.807)" fill="#f8bd01"/>
        <path id="Trazado_1779" data-name="Trazado 1779" d="M90.934,16.991l.619-.106V13.946l-.619-.106v-.483H92.3v3.528l.62.106v.479H90.934ZM92.3,12.3h-.749V11.54H92.3Z" transform="translate(-14.241 -1.807)" fill="#f8bd01"/>
        <path id="Trazado_1780" data-name="Trazado 1780" d="M96.045,17.288a1.011,1.011,0,0,0,.656-.23.7.7,0,0,0,.283-.564h.672l.008.023a1.151,1.151,0,0,1-.473.944,1.727,1.727,0,0,1-1.146.413,1.66,1.66,0,0,1-1.37-.585,2.263,2.263,0,0,1-.474-1.472v-.159a2.252,2.252,0,0,1,.476-1.465,1.659,1.659,0,0,1,1.368-.588,2.3,2.3,0,0,1,.887.164,1.813,1.813,0,0,1,.653.449l.034.913h-.6l-.163-.647a.992.992,0,0,0-.342-.208,1.3,1.3,0,0,0-.471-.08.9.9,0,0,0-.842.423,2,2,0,0,0-.253,1.04v.159a2.033,2.033,0,0,0,.25,1.052.907.907,0,0,0,.844.42" transform="translate(-14.752 -2.13)" fill="#f8bd01"/>
        <path id="Trazado_1781" data-name="Trazado 1781" d="M102.1,17.793c-.023-.111-.04-.211-.052-.3s-.022-.177-.027-.267a1.816,1.816,0,0,1-.541.462,1.555,1.555,0,0,1-1.671-.129,1.156,1.156,0,0,1-.335-.884,1.024,1.024,0,0,1,.473-.9,2.307,2.307,0,0,1,1.3-.317h.772v-.479a.742.742,0,0,0-.228-.572.9.9,0,0,0-.635-.211,1.56,1.56,0,0,0-.5.072.946.946,0,0,0-.348.2l-.079.433H99.65v-.8a2.226,2.226,0,0,1,.681-.359,2.679,2.679,0,0,1,.866-.135,1.719,1.719,0,0,1,1.133.358,1.248,1.248,0,0,1,.434,1.022v1.98c0,.053,0,.105,0,.156s0,.1.009.152l.3.042v.478Zm-1.2-.547a1.331,1.331,0,0,0,.68-.179,1.1,1.1,0,0,0,.441-.43v-.676h-.8a1.14,1.14,0,0,0-.728.213.639.639,0,0,0-.268.517.513.513,0,0,0,.167.412.771.771,0,0,0,.506.143" transform="translate(-15.578 -2.131)" fill="#f8bd01"/>
      </g>
    </g>
  </g>
</svg>
